<mxfile host="Electron" agent="Mozilla/5.0 (Windows NT 10.0; Win64; x64) AppleWebKit/537.36 (KHTML, like Gecko) draw.io/26.0.9 Chrome/128.0.6613.186 Electron/32.2.5 Safari/537.36" version="26.0.9">
  <diagram name="Page-1" id="5paR1ZeKKGclW1PN4thz">
    <mxGraphModel dx="2206" dy="1595" grid="1" gridSize="10" guides="1" tooltips="1" connect="1" arrows="1" fold="1" page="1" pageScale="1" pageWidth="850" pageHeight="1100" math="0" shadow="0">
      <root>
        <mxCell id="0" />
        <mxCell id="1" parent="0" />
        <mxCell id="0nqg7Sc1q2JI6adaUOui-7" value="" style="group;fontSize=15;" parent="1" vertex="1" connectable="0">
          <mxGeometry x="410" y="80" width="1230" height="510" as="geometry" />
        </mxCell>
        <mxCell id="0nqg7Sc1q2JI6adaUOui-8" value="" style="rounded=1;whiteSpace=wrap;html=1;glass=0;fillColor=#dae8fc;strokeColor=#6c8ebf;fontSize=15;" parent="0nqg7Sc1q2JI6adaUOui-7" vertex="1">
          <mxGeometry x="-12.18" width="1230" height="360" as="geometry" />
        </mxCell>
        <mxCell id="0nqg7Sc1q2JI6adaUOui-36" style="edgeStyle=orthogonalEdgeStyle;rounded=0;orthogonalLoop=1;jettySize=auto;html=1;entryX=0;entryY=0.5;entryDx=0;entryDy=0;fontSize=15;" parent="0nqg7Sc1q2JI6adaUOui-7" source="0nqg7Sc1q2JI6adaUOui-10" target="SgOJjiS7krHxdYD3xKm1-21" edge="1">
          <mxGeometry relative="1" as="geometry">
            <mxPoint x="340.9899999999998" y="186.06500000000005" as="targetPoint" />
          </mxGeometry>
        </mxCell>
        <mxCell id="0nqg7Sc1q2JI6adaUOui-10" value="Recieve Image" style="rounded=1;whiteSpace=wrap;html=1;fontSize=15;" parent="0nqg7Sc1q2JI6adaUOui-7" vertex="1">
          <mxGeometry x="60.89108910891089" y="152.67000000000002" width="219.81683168316832" height="66.79" as="geometry" />
        </mxCell>
        <mxCell id="0nqg7Sc1q2JI6adaUOui-16" value="Image Processing&amp;nbsp;" style="rounded=1;whiteSpace=wrap;html=1;fontSize=15;" parent="0nqg7Sc1q2JI6adaUOui-7" vertex="1">
          <mxGeometry x="351.75" y="270" width="159.01" height="66.79" as="geometry" />
        </mxCell>
        <mxCell id="0nqg7Sc1q2JI6adaUOui-39" style="edgeStyle=orthogonalEdgeStyle;rounded=0;orthogonalLoop=1;jettySize=auto;html=1;entryX=0;entryY=0.5;entryDx=0;entryDy=0;fontSize=15;" parent="0nqg7Sc1q2JI6adaUOui-7" source="0nqg7Sc1q2JI6adaUOui-17" target="0nqg7Sc1q2JI6adaUOui-18" edge="1">
          <mxGeometry relative="1" as="geometry" />
        </mxCell>
        <mxCell id="0nqg7Sc1q2JI6adaUOui-17" value="Item Positon and orientation" style="rounded=1;whiteSpace=wrap;html=1;fontSize=15;" parent="0nqg7Sc1q2JI6adaUOui-7" vertex="1">
          <mxGeometry x="550" y="152.67000000000002" width="170" height="66.79" as="geometry" />
        </mxCell>
        <mxCell id="ib2QQWaPSha35dMwTbKv-3" style="edgeStyle=orthogonalEdgeStyle;rounded=0;orthogonalLoop=1;jettySize=auto;html=1;fontSize=15;" parent="0nqg7Sc1q2JI6adaUOui-7" source="0nqg7Sc1q2JI6adaUOui-18" target="ib2QQWaPSha35dMwTbKv-2" edge="1">
          <mxGeometry relative="1" as="geometry" />
        </mxCell>
        <mxCell id="0nqg7Sc1q2JI6adaUOui-18" value="Calculate Inverse Kinematics" style="rounded=1;whiteSpace=wrap;html=1;fontSize=15;" parent="0nqg7Sc1q2JI6adaUOui-7" vertex="1">
          <mxGeometry x="760" y="152.66" width="180" height="66.79" as="geometry" />
        </mxCell>
        <mxCell id="0nqg7Sc1q2JI6adaUOui-31" style="edgeStyle=orthogonalEdgeStyle;rounded=0;orthogonalLoop=1;jettySize=auto;html=1;entryX=0.5;entryY=0;entryDx=0;entryDy=0;fontSize=15;exitX=0.495;exitY=0.957;exitDx=0;exitDy=0;exitPerimeter=0;" parent="0nqg7Sc1q2JI6adaUOui-7" source="SgOJjiS7krHxdYD3xKm1-21" target="0nqg7Sc1q2JI6adaUOui-16" edge="1">
          <mxGeometry relative="1" as="geometry">
            <mxPoint x="420.4949999999999" y="219.46000000000004" as="sourcePoint" />
          </mxGeometry>
        </mxCell>
        <mxCell id="0nqg7Sc1q2JI6adaUOui-32" value="Yes" style="edgeLabel;html=1;align=center;verticalAlign=middle;resizable=0;points=[];fontSize=15;" parent="0nqg7Sc1q2JI6adaUOui-31" vertex="1" connectable="0">
          <mxGeometry x="-0.222" y="4" relative="1" as="geometry">
            <mxPoint x="-4" as="offset" />
          </mxGeometry>
        </mxCell>
        <mxCell id="0nqg7Sc1q2JI6adaUOui-33" style="edgeStyle=orthogonalEdgeStyle;rounded=0;orthogonalLoop=1;jettySize=auto;html=1;entryX=0.5;entryY=0;entryDx=0;entryDy=0;fontSize=15;exitX=0.5;exitY=0;exitDx=0;exitDy=0;" parent="0nqg7Sc1q2JI6adaUOui-7" source="SgOJjiS7krHxdYD3xKm1-21" target="0nqg7Sc1q2JI6adaUOui-10" edge="1">
          <mxGeometry relative="1" as="geometry">
            <Array as="points">
              <mxPoint x="430" y="131" />
              <mxPoint x="430" y="80" />
              <mxPoint x="171" y="80" />
            </Array>
            <mxPoint x="420.5454545454545" y="152.67000000000007" as="sourcePoint" />
          </mxGeometry>
        </mxCell>
        <mxCell id="0nqg7Sc1q2JI6adaUOui-34" value="No" style="edgeLabel;html=1;align=center;verticalAlign=middle;resizable=0;points=[];fontSize=15;" parent="0nqg7Sc1q2JI6adaUOui-33" vertex="1" connectable="0">
          <mxGeometry x="0.0393" relative="1" as="geometry">
            <mxPoint as="offset" />
          </mxGeometry>
        </mxCell>
        <mxCell id="ib2QQWaPSha35dMwTbKv-2" value="Send IK data&lt;br&gt;(Motor angles)" style="rounded=1;whiteSpace=wrap;html=1;fontSize=15;" parent="0nqg7Sc1q2JI6adaUOui-7" vertex="1">
          <mxGeometry x="970" y="152.66000000000003" width="180" height="66.79" as="geometry" />
        </mxCell>
        <mxCell id="SgOJjiS7krHxdYD3xKm1-2" value="Mircrosoft AZURE" style="text;html=1;align=center;verticalAlign=middle;resizable=0;points=[];autosize=1;strokeColor=none;fillColor=none;" vertex="1" parent="0nqg7Sc1q2JI6adaUOui-7">
          <mxGeometry x="160.70999999999998" y="400" width="120" height="30" as="geometry" />
        </mxCell>
        <mxCell id="SgOJjiS7krHxdYD3xKm1-21" value="Item Detected?" style="rhombus;whiteSpace=wrap;html=1;fontSize=15;rounded=1;" vertex="1" parent="0nqg7Sc1q2JI6adaUOui-7">
          <mxGeometry x="362.5" y="131.06" width="137.5" height="109.99" as="geometry" />
        </mxCell>
        <mxCell id="0nqg7Sc1q2JI6adaUOui-3" value="" style="group;fontSize=15;" parent="1" vertex="1" connectable="0">
          <mxGeometry x="90" y="121.07" width="210" height="290" as="geometry" />
        </mxCell>
        <mxCell id="0nqg7Sc1q2JI6adaUOui-1" value="" style="rounded=1;whiteSpace=wrap;html=1;glass=0;fillColor=#dae8fc;strokeColor=#6c8ebf;fontSize=15;" parent="0nqg7Sc1q2JI6adaUOui-3" vertex="1">
          <mxGeometry width="210" height="290" as="geometry" />
        </mxCell>
        <mxCell id="0nqg7Sc1q2JI6adaUOui-4" value="Capture image" style="rounded=1;whiteSpace=wrap;html=1;fontSize=15;" parent="0nqg7Sc1q2JI6adaUOui-3" vertex="1">
          <mxGeometry x="24.47" y="113.92857142857142" width="161.06" height="62.14285714285714" as="geometry" />
        </mxCell>
        <mxCell id="0nqg7Sc1q2JI6adaUOui-37" style="edgeStyle=orthogonalEdgeStyle;rounded=0;orthogonalLoop=1;jettySize=auto;html=1;entryX=0;entryY=0.5;entryDx=0;entryDy=0;fontSize=15;" parent="1" source="0nqg7Sc1q2JI6adaUOui-4" target="0nqg7Sc1q2JI6adaUOui-10" edge="1">
          <mxGeometry relative="1" as="geometry" />
        </mxCell>
        <mxCell id="0nqg7Sc1q2JI6adaUOui-9" value="Raspberry Pi" style="text;html=1;align=center;verticalAlign=middle;whiteSpace=wrap;rounded=0;movable=1;resizable=1;rotatable=1;deletable=1;editable=1;locked=0;connectable=1;fontSize=15;" parent="1" vertex="1">
          <mxGeometry x="923.8512022630835" y="25.36" width="202.2975954738331" height="54.64285714285714" as="geometry" />
        </mxCell>
        <mxCell id="0nqg7Sc1q2JI6adaUOui-2" value="End Effector Camera" style="text;html=1;align=center;verticalAlign=middle;whiteSpace=wrap;rounded=0;movable=1;resizable=1;rotatable=1;deletable=1;editable=1;locked=0;connectable=1;fontSize=15;" parent="1" vertex="1">
          <mxGeometry x="130.8" y="90" width="128.4" height="31.07" as="geometry" />
        </mxCell>
        <mxCell id="dhBHvoPyZiaG5rZzquTN-1" value="" style="group;fontSize=15;flipV=0;flipH=0;direction=east;" parent="1" vertex="1" connectable="0">
          <mxGeometry x="980" y="500" width="1070" height="666.79" as="geometry" />
        </mxCell>
        <mxCell id="ib2QQWaPSha35dMwTbKv-63" value="" style="rounded=1;whiteSpace=wrap;html=1;glass=0;fillColor=#dae8fc;movable=1;resizable=1;rotatable=1;deletable=1;editable=1;locked=0;connectable=1;strokeColor=#6c8ebf;fontSize=15;" parent="dhBHvoPyZiaG5rZzquTN-1" vertex="1">
          <mxGeometry y="56.79000000000002" width="1060" height="610" as="geometry" />
        </mxCell>
        <mxCell id="ib2QQWaPSha35dMwTbKv-184" value="" style="rounded=1;whiteSpace=wrap;html=1;fillColor=#dae8fc;strokeColor=#6c8ebf;fontSize=15;" parent="dhBHvoPyZiaG5rZzquTN-1" vertex="1">
          <mxGeometry x="220" y="436.79" width="790" height="200" as="geometry" />
        </mxCell>
        <mxCell id="ib2QQWaPSha35dMwTbKv-182" value="" style="rounded=1;whiteSpace=wrap;html=1;fillColor=#dae8fc;strokeColor=#6c8ebf;fontSize=15;" parent="dhBHvoPyZiaG5rZzquTN-1" vertex="1">
          <mxGeometry x="220" y="86.78999999999996" width="790" height="200" as="geometry" />
        </mxCell>
        <mxCell id="ib2QQWaPSha35dMwTbKv-64" value="ESP32/Arduino" style="text;html=1;align=center;verticalAlign=middle;whiteSpace=wrap;rounded=0;movable=1;resizable=1;rotatable=1;deletable=1;editable=1;locked=0;connectable=1;fontSize=15;" parent="dhBHvoPyZiaG5rZzquTN-1" vertex="1">
          <mxGeometry x="446.12050919377646" y="-5.684341886080802e-14" width="167.75898161244697" height="56.785714285714285" as="geometry" />
        </mxCell>
        <mxCell id="ib2QQWaPSha35dMwTbKv-62" value="" style="group;movable=1;resizable=1;rotatable=1;deletable=1;editable=1;locked=0;connectable=1;fontSize=15;" parent="dhBHvoPyZiaG5rZzquTN-1" vertex="1" connectable="0">
          <mxGeometry x="10" y="76.78999999999996" width="1060" height="540" as="geometry" />
        </mxCell>
        <mxCell id="ib2QQWaPSha35dMwTbKv-66" value="Recieve IK Data" style="rounded=1;whiteSpace=wrap;html=1;fontSize=15;" parent="ib2QQWaPSha35dMwTbKv-62" vertex="1">
          <mxGeometry x="50.004059405940595" y="250.2941176470588" width="182.2871287128713" height="69.40921568627452" as="geometry" />
        </mxCell>
        <mxCell id="ib2QQWaPSha35dMwTbKv-83" value="Item in hand?" style="rhombus;whiteSpace=wrap;html=1;rounded=1;fontSize=15;" parent="ib2QQWaPSha35dMwTbKv-62" vertex="1">
          <mxGeometry x="295" y="232.5" width="130" height="105" as="geometry" />
        </mxCell>
        <mxCell id="ib2QQWaPSha35dMwTbKv-84" value="" style="edgeStyle=orthogonalEdgeStyle;rounded=0;orthogonalLoop=1;jettySize=auto;html=1;fontSize=15;" parent="ib2QQWaPSha35dMwTbKv-62" source="ib2QQWaPSha35dMwTbKv-66" target="ib2QQWaPSha35dMwTbKv-83" edge="1">
          <mxGeometry relative="1" as="geometry" />
        </mxCell>
        <mxCell id="ib2QQWaPSha35dMwTbKv-86" value="Adjust Motors&lt;br&gt;(PID/PWM)" style="whiteSpace=wrap;html=1;rounded=1;fillColor=#f8cecc;strokeColor=#b85450;fontSize=15;" parent="ib2QQWaPSha35dMwTbKv-62" vertex="1">
          <mxGeometry x="300" y="70" width="120" height="60" as="geometry" />
        </mxCell>
        <mxCell id="ib2QQWaPSha35dMwTbKv-87" value="" style="edgeStyle=orthogonalEdgeStyle;rounded=0;orthogonalLoop=1;jettySize=auto;html=1;fontSize=15;" parent="ib2QQWaPSha35dMwTbKv-62" source="ib2QQWaPSha35dMwTbKv-83" target="ib2QQWaPSha35dMwTbKv-86" edge="1">
          <mxGeometry relative="1" as="geometry" />
        </mxCell>
        <mxCell id="ib2QQWaPSha35dMwTbKv-92" value="No" style="edgeLabel;html=1;align=center;verticalAlign=middle;resizable=0;points=[];fontSize=15;" parent="ib2QQWaPSha35dMwTbKv-87" vertex="1" connectable="0">
          <mxGeometry x="-0.2314" y="-3" relative="1" as="geometry">
            <mxPoint as="offset" />
          </mxGeometry>
        </mxCell>
        <mxCell id="ib2QQWaPSha35dMwTbKv-91" value="" style="edgeStyle=orthogonalEdgeStyle;rounded=0;orthogonalLoop=1;jettySize=auto;html=1;fontSize=15;" parent="ib2QQWaPSha35dMwTbKv-62" source="ib2QQWaPSha35dMwTbKv-88" target="ib2QQWaPSha35dMwTbKv-90" edge="1">
          <mxGeometry relative="1" as="geometry" />
        </mxCell>
        <mxCell id="ib2QQWaPSha35dMwTbKv-88" value="Adjust Motors&lt;br&gt;(PID/PWM)" style="whiteSpace=wrap;html=1;rounded=1;fillColor=#f8cecc;strokeColor=#b85450;fontSize=15;" parent="ib2QQWaPSha35dMwTbKv-62" vertex="1">
          <mxGeometry x="300" y="440" width="120" height="60" as="geometry" />
        </mxCell>
        <mxCell id="ib2QQWaPSha35dMwTbKv-89" value="Yes" style="edgeStyle=orthogonalEdgeStyle;rounded=0;orthogonalLoop=1;jettySize=auto;html=1;fontSize=15;" parent="ib2QQWaPSha35dMwTbKv-62" source="ib2QQWaPSha35dMwTbKv-83" target="ib2QQWaPSha35dMwTbKv-88" edge="1">
          <mxGeometry relative="1" as="geometry" />
        </mxCell>
        <mxCell id="ib2QQWaPSha35dMwTbKv-97" style="edgeStyle=orthogonalEdgeStyle;rounded=0;orthogonalLoop=1;jettySize=auto;html=1;entryX=0.5;entryY=0;entryDx=0;entryDy=0;fontSize=15;" parent="ib2QQWaPSha35dMwTbKv-62" source="ib2QQWaPSha35dMwTbKv-90" target="ib2QQWaPSha35dMwTbKv-88" edge="1">
          <mxGeometry relative="1" as="geometry">
            <Array as="points">
              <mxPoint x="540" y="410" />
              <mxPoint x="360" y="410" />
            </Array>
          </mxGeometry>
        </mxCell>
        <mxCell id="ib2QQWaPSha35dMwTbKv-98" value="No" style="edgeLabel;html=1;align=center;verticalAlign=middle;resizable=0;points=[];fontSize=15;" parent="ib2QQWaPSha35dMwTbKv-97" vertex="1" connectable="0">
          <mxGeometry x="-0.0706" y="4" relative="1" as="geometry">
            <mxPoint as="offset" />
          </mxGeometry>
        </mxCell>
        <mxCell id="ib2QQWaPSha35dMwTbKv-90" value="Check" style="rhombus;whiteSpace=wrap;html=1;rounded=1;fontSize=15;" parent="ib2QQWaPSha35dMwTbKv-62" vertex="1">
          <mxGeometry x="500" y="430" width="80" height="80" as="geometry" />
        </mxCell>
        <mxCell id="ib2QQWaPSha35dMwTbKv-95" style="edgeStyle=orthogonalEdgeStyle;rounded=0;orthogonalLoop=1;jettySize=auto;html=1;entryX=0.5;entryY=1;entryDx=0;entryDy=0;fontSize=15;" parent="ib2QQWaPSha35dMwTbKv-62" source="ib2QQWaPSha35dMwTbKv-93" target="ib2QQWaPSha35dMwTbKv-86" edge="1">
          <mxGeometry relative="1" as="geometry">
            <Array as="points">
              <mxPoint x="540" y="160" />
              <mxPoint x="360" y="160" />
            </Array>
          </mxGeometry>
        </mxCell>
        <mxCell id="ib2QQWaPSha35dMwTbKv-96" value="No" style="edgeLabel;html=1;align=center;verticalAlign=middle;resizable=0;points=[];fontSize=15;" parent="ib2QQWaPSha35dMwTbKv-95" vertex="1" connectable="0">
          <mxGeometry x="-0.1028" y="-1" relative="1" as="geometry">
            <mxPoint as="offset" />
          </mxGeometry>
        </mxCell>
        <mxCell id="ib2QQWaPSha35dMwTbKv-93" value="Check" style="rhombus;whiteSpace=wrap;html=1;rounded=1;fontSize=15;" parent="ib2QQWaPSha35dMwTbKv-62" vertex="1">
          <mxGeometry x="500" y="60" width="80" height="80" as="geometry" />
        </mxCell>
        <mxCell id="ib2QQWaPSha35dMwTbKv-94" value="" style="edgeStyle=orthogonalEdgeStyle;rounded=0;orthogonalLoop=1;jettySize=auto;html=1;fontSize=15;" parent="ib2QQWaPSha35dMwTbKv-62" source="ib2QQWaPSha35dMwTbKv-86" target="ib2QQWaPSha35dMwTbKv-93" edge="1">
          <mxGeometry relative="1" as="geometry" />
        </mxCell>
        <mxCell id="ib2QQWaPSha35dMwTbKv-173" style="edgeStyle=orthogonalEdgeStyle;rounded=0;orthogonalLoop=1;jettySize=auto;html=1;entryX=0.5;entryY=1;entryDx=0;entryDy=0;fontSize=15;" parent="dhBHvoPyZiaG5rZzquTN-1" source="ib2QQWaPSha35dMwTbKv-99" target="ib2QQWaPSha35dMwTbKv-66" edge="1">
          <mxGeometry relative="1" as="geometry">
            <Array as="points">
              <mxPoint x="710" y="596.79" />
              <mxPoint x="151" y="596.79" />
            </Array>
          </mxGeometry>
        </mxCell>
        <mxCell id="ib2QQWaPSha35dMwTbKv-174" value="No" style="edgeLabel;html=1;align=center;verticalAlign=middle;resizable=0;points=[];fontSize=15;" parent="ib2QQWaPSha35dMwTbKv-173" vertex="1" connectable="0">
          <mxGeometry x="-0.966" relative="1" as="geometry">
            <mxPoint as="offset" />
          </mxGeometry>
        </mxCell>
        <mxCell id="ib2QQWaPSha35dMwTbKv-176" value="" style="edgeStyle=orthogonalEdgeStyle;rounded=0;orthogonalLoop=1;jettySize=auto;html=1;fontSize=15;" parent="dhBHvoPyZiaG5rZzquTN-1" source="ib2QQWaPSha35dMwTbKv-99" target="ib2QQWaPSha35dMwTbKv-175" edge="1">
          <mxGeometry relative="1" as="geometry" />
        </mxCell>
        <mxCell id="ib2QQWaPSha35dMwTbKv-177" value="Yes" style="edgeLabel;html=1;align=center;verticalAlign=middle;resizable=0;points=[];fontSize=15;" parent="ib2QQWaPSha35dMwTbKv-176" vertex="1" connectable="0">
          <mxGeometry x="-0.091" relative="1" as="geometry">
            <mxPoint as="offset" />
          </mxGeometry>
        </mxCell>
        <mxCell id="ib2QQWaPSha35dMwTbKv-99" value="Drop off location?" style="whiteSpace=wrap;html=1;rounded=1;fontSize=15;" parent="dhBHvoPyZiaG5rZzquTN-1" vertex="1">
          <mxGeometry x="650" y="516.79" width="120" height="60" as="geometry" />
        </mxCell>
        <mxCell id="ib2QQWaPSha35dMwTbKv-100" value="" style="edgeStyle=orthogonalEdgeStyle;rounded=0;orthogonalLoop=1;jettySize=auto;html=1;fontSize=15;" parent="dhBHvoPyZiaG5rZzquTN-1" source="ib2QQWaPSha35dMwTbKv-90" target="ib2QQWaPSha35dMwTbKv-99" edge="1">
          <mxGeometry relative="1" as="geometry" />
        </mxCell>
        <mxCell id="ib2QQWaPSha35dMwTbKv-165" style="edgeStyle=orthogonalEdgeStyle;rounded=0;orthogonalLoop=1;jettySize=auto;html=1;entryX=0.5;entryY=0;entryDx=0;entryDy=0;fontSize=15;" parent="dhBHvoPyZiaG5rZzquTN-1" source="ib2QQWaPSha35dMwTbKv-163" target="ib2QQWaPSha35dMwTbKv-66" edge="1">
          <mxGeometry relative="1" as="geometry">
            <Array as="points">
              <mxPoint x="710" y="126.78999999999996" />
              <mxPoint x="151" y="126.78999999999996" />
            </Array>
          </mxGeometry>
        </mxCell>
        <mxCell id="ib2QQWaPSha35dMwTbKv-167" value="No" style="edgeLabel;html=1;align=center;verticalAlign=middle;resizable=0;points=[];fontSize=15;" parent="ib2QQWaPSha35dMwTbKv-165" vertex="1" connectable="0">
          <mxGeometry x="-0.8804" y="-2" relative="1" as="geometry">
            <mxPoint x="27" y="12" as="offset" />
          </mxGeometry>
        </mxCell>
        <mxCell id="ib2QQWaPSha35dMwTbKv-169" value="" style="edgeStyle=orthogonalEdgeStyle;rounded=0;orthogonalLoop=1;jettySize=auto;html=1;fontSize=15;" parent="dhBHvoPyZiaG5rZzquTN-1" source="ib2QQWaPSha35dMwTbKv-163" target="ib2QQWaPSha35dMwTbKv-168" edge="1">
          <mxGeometry relative="1" as="geometry" />
        </mxCell>
        <mxCell id="ib2QQWaPSha35dMwTbKv-170" value="Yes" style="edgeLabel;html=1;align=center;verticalAlign=middle;resizable=0;points=[];fontSize=15;" parent="ib2QQWaPSha35dMwTbKv-169" vertex="1" connectable="0">
          <mxGeometry x="-0.1352" relative="1" as="geometry">
            <mxPoint as="offset" />
          </mxGeometry>
        </mxCell>
        <mxCell id="ib2QQWaPSha35dMwTbKv-163" value="Sensor detecting item?" style="whiteSpace=wrap;html=1;rounded=1;fontSize=15;" parent="dhBHvoPyZiaG5rZzquTN-1" vertex="1">
          <mxGeometry x="650" y="146.78999999999996" width="120" height="60" as="geometry" />
        </mxCell>
        <mxCell id="ib2QQWaPSha35dMwTbKv-164" value="" style="edgeStyle=orthogonalEdgeStyle;rounded=0;orthogonalLoop=1;jettySize=auto;html=1;fontSize=15;" parent="dhBHvoPyZiaG5rZzquTN-1" source="ib2QQWaPSha35dMwTbKv-93" target="ib2QQWaPSha35dMwTbKv-163" edge="1">
          <mxGeometry relative="1" as="geometry" />
        </mxCell>
        <mxCell id="ib2QQWaPSha35dMwTbKv-166" value="Yes" style="edgeLabel;html=1;align=center;verticalAlign=middle;resizable=0;points=[];fontSize=15;" parent="ib2QQWaPSha35dMwTbKv-164" vertex="1" connectable="0">
          <mxGeometry x="-0.5725" y="-2" relative="1" as="geometry">
            <mxPoint x="9" y="-2" as="offset" />
          </mxGeometry>
        </mxCell>
        <mxCell id="ib2QQWaPSha35dMwTbKv-171" style="edgeStyle=orthogonalEdgeStyle;rounded=0;orthogonalLoop=1;jettySize=auto;html=1;entryX=0.5;entryY=0;entryDx=0;entryDy=0;fontSize=15;" parent="dhBHvoPyZiaG5rZzquTN-1" source="ib2QQWaPSha35dMwTbKv-168" target="ib2QQWaPSha35dMwTbKv-66" edge="1">
          <mxGeometry relative="1" as="geometry">
            <Array as="points">
              <mxPoint x="910" y="126.78999999999996" />
              <mxPoint x="151" y="126.78999999999996" />
            </Array>
          </mxGeometry>
        </mxCell>
        <mxCell id="ib2QQWaPSha35dMwTbKv-168" value="Close End-effector" style="whiteSpace=wrap;html=1;rounded=1;fontSize=15;" parent="dhBHvoPyZiaG5rZzquTN-1" vertex="1">
          <mxGeometry x="850" y="146.78999999999996" width="120" height="60" as="geometry" />
        </mxCell>
        <mxCell id="ib2QQWaPSha35dMwTbKv-178" style="edgeStyle=orthogonalEdgeStyle;rounded=0;orthogonalLoop=1;jettySize=auto;html=1;entryX=0.5;entryY=1;entryDx=0;entryDy=0;fontSize=15;" parent="dhBHvoPyZiaG5rZzquTN-1" source="ib2QQWaPSha35dMwTbKv-175" target="ib2QQWaPSha35dMwTbKv-66" edge="1">
          <mxGeometry relative="1" as="geometry">
            <Array as="points">
              <mxPoint x="910" y="596.79" />
              <mxPoint x="151" y="596.79" />
            </Array>
          </mxGeometry>
        </mxCell>
        <mxCell id="ib2QQWaPSha35dMwTbKv-175" value="Open end-effector&amp;nbsp;" style="whiteSpace=wrap;html=1;rounded=1;fontSize=15;" parent="dhBHvoPyZiaG5rZzquTN-1" vertex="1">
          <mxGeometry x="850" y="516.79" width="120" height="60" as="geometry" />
        </mxCell>
        <mxCell id="ib2QQWaPSha35dMwTbKv-183" value="Pick" style="text;html=1;align=center;verticalAlign=middle;whiteSpace=wrap;rounded=0;movable=1;resizable=1;rotatable=1;deletable=1;editable=1;locked=0;connectable=1;fontSize=15;" parent="dhBHvoPyZiaG5rZzquTN-1" vertex="1">
          <mxGeometry x="530.0005091937765" y="76.79000000000002" width="167.75898161244697" height="56.785714285714285" as="geometry" />
        </mxCell>
        <mxCell id="ib2QQWaPSha35dMwTbKv-185" value="Place" style="text;html=1;align=center;verticalAlign=middle;whiteSpace=wrap;rounded=0;movable=1;resizable=1;rotatable=1;deletable=1;editable=1;locked=0;connectable=1;fontSize=15;" parent="dhBHvoPyZiaG5rZzquTN-1" vertex="1">
          <mxGeometry x="530.0005091937765" y="426.79" width="167.75898161244697" height="56.785714285714285" as="geometry" />
        </mxCell>
        <mxCell id="ib2QQWaPSha35dMwTbKv-4" style="edgeStyle=orthogonalEdgeStyle;rounded=0;orthogonalLoop=1;jettySize=auto;html=1;entryX=0;entryY=0.5;entryDx=0;entryDy=0;fontSize=15;" parent="1" source="ib2QQWaPSha35dMwTbKv-2" target="ib2QQWaPSha35dMwTbKv-66" edge="1">
          <mxGeometry relative="1" as="geometry">
            <mxPoint x="1750.0040594059406" y="334.99872549019574" as="targetPoint" />
            <Array as="points">
              <mxPoint x="1470" y="472" />
              <mxPoint x="960" y="472" />
              <mxPoint x="960" y="862" />
            </Array>
          </mxGeometry>
        </mxCell>
        <mxCell id="dhBHvoPyZiaG5rZzquTN-55" value="" style="group;fontSize=15;" parent="1" vertex="1" connectable="0">
          <mxGeometry x="65" y="680" width="360" height="250" as="geometry" />
        </mxCell>
        <mxCell id="dhBHvoPyZiaG5rZzquTN-3" value="" style="rounded=0;whiteSpace=wrap;html=1;movable=1;resizable=1;rotatable=1;deletable=1;editable=1;locked=0;connectable=1;fontSize=15;" parent="dhBHvoPyZiaG5rZzquTN-55" vertex="1">
          <mxGeometry width="360" height="250" as="geometry" />
        </mxCell>
        <mxCell id="dhBHvoPyZiaG5rZzquTN-2" value="" style="rounded=1;whiteSpace=wrap;html=1;fillColor=#dae8fc;strokeColor=#6c8ebf;movable=1;resizable=1;rotatable=1;deletable=1;editable=1;locked=0;connectable=1;fontSize=15;" parent="dhBHvoPyZiaG5rZzquTN-55" vertex="1">
          <mxGeometry x="20" y="10" width="120" height="60" as="geometry" />
        </mxCell>
        <mxCell id="dhBHvoPyZiaG5rZzquTN-4" value="" style="rounded=1;whiteSpace=wrap;html=1;fillColor=#fff2cc;strokeColor=#d6b656;movable=1;resizable=1;rotatable=1;deletable=1;editable=1;locked=0;connectable=1;fontSize=15;" parent="dhBHvoPyZiaG5rZzquTN-55" vertex="1">
          <mxGeometry x="20" y="90" width="120" height="60" as="geometry" />
        </mxCell>
        <mxCell id="dhBHvoPyZiaG5rZzquTN-5" value="" style="rounded=1;whiteSpace=wrap;html=1;fillColor=#f8cecc;strokeColor=#b85450;movable=1;resizable=1;rotatable=1;deletable=1;editable=1;locked=0;connectable=1;fontSize=15;" parent="dhBHvoPyZiaG5rZzquTN-55" vertex="1">
          <mxGeometry x="20" y="170" width="120" height="60" as="geometry" />
        </mxCell>
        <mxCell id="dhBHvoPyZiaG5rZzquTN-6" value="Jayden Lumas" style="text;html=1;align=center;verticalAlign=middle;whiteSpace=wrap;rounded=0;movable=1;resizable=1;rotatable=1;deletable=1;editable=1;locked=0;connectable=1;fontSize=15;" parent="dhBHvoPyZiaG5rZzquTN-55" vertex="1">
          <mxGeometry x="150" y="25" width="190" height="30" as="geometry" />
        </mxCell>
        <mxCell id="dhBHvoPyZiaG5rZzquTN-7" value="Dylan Bowers" style="text;html=1;align=center;verticalAlign=middle;whiteSpace=wrap;rounded=0;movable=1;resizable=1;rotatable=1;deletable=1;editable=1;locked=0;connectable=1;fontSize=15;" parent="dhBHvoPyZiaG5rZzquTN-55" vertex="1">
          <mxGeometry x="150" y="105" width="190" height="30" as="geometry" />
        </mxCell>
        <mxCell id="dhBHvoPyZiaG5rZzquTN-8" value="Tristan Koopman" style="text;html=1;align=center;verticalAlign=middle;whiteSpace=wrap;rounded=0;movable=1;resizable=1;rotatable=1;deletable=1;editable=1;locked=0;connectable=1;fontSize=15;" parent="dhBHvoPyZiaG5rZzquTN-55" vertex="1">
          <mxGeometry x="150" y="185" width="190" height="30" as="geometry" />
        </mxCell>
        <mxCell id="SgOJjiS7krHxdYD3xKm1-3" style="edgeStyle=orthogonalEdgeStyle;rounded=0;orthogonalLoop=1;jettySize=auto;html=1;entryX=0.5;entryY=1;entryDx=0;entryDy=0;startArrow=classic;startFill=1;" edge="1" parent="1" source="SgOJjiS7krHxdYD3xKm1-1" target="0nqg7Sc1q2JI6adaUOui-16">
          <mxGeometry relative="1" as="geometry">
            <Array as="points">
              <mxPoint x="841" y="665" />
              <mxPoint x="841" y="470" />
            </Array>
          </mxGeometry>
        </mxCell>
        <mxCell id="SgOJjiS7krHxdYD3xKm1-6" value="API in/out" style="edgeLabel;html=1;align=center;verticalAlign=middle;resizable=0;points=[];" vertex="1" connectable="0" parent="SgOJjiS7krHxdYD3xKm1-3">
          <mxGeometry x="0.1503" y="5" relative="1" as="geometry">
            <mxPoint x="4" y="2" as="offset" />
          </mxGeometry>
        </mxCell>
        <mxCell id="SgOJjiS7krHxdYD3xKm1-1" value="" style="rounded=1;whiteSpace=wrap;html=1;movable=1;resizable=1;rotatable=1;deletable=1;editable=1;locked=0;connectable=1;fontSize=15;" vertex="1" parent="1">
          <mxGeometry x="482.2" y="510" width="300" height="310" as="geometry" />
        </mxCell>
        <mxCell id="SgOJjiS7krHxdYD3xKm1-12" value="" style="edgeStyle=orthogonalEdgeStyle;rounded=0;orthogonalLoop=1;jettySize=auto;html=1;" edge="1" parent="1" source="SgOJjiS7krHxdYD3xKm1-8" target="SgOJjiS7krHxdYD3xKm1-11">
          <mxGeometry relative="1" as="geometry" />
        </mxCell>
        <mxCell id="SgOJjiS7krHxdYD3xKm1-8" value="Image Processing&amp;nbsp;" style="rounded=1;whiteSpace=wrap;html=1;fontSize=15;" vertex="1" parent="1">
          <mxGeometry x="552.7" y="560" width="159.01" height="66.79" as="geometry" />
        </mxCell>
        <mxCell id="SgOJjiS7krHxdYD3xKm1-14" value="" style="edgeStyle=orthogonalEdgeStyle;rounded=0;orthogonalLoop=1;jettySize=auto;html=1;entryX=0;entryY=0.5;entryDx=0;entryDy=0;" edge="1" parent="1" source="SgOJjiS7krHxdYD3xKm1-11" target="0nqg7Sc1q2JI6adaUOui-10">
          <mxGeometry relative="1" as="geometry">
            <mxPoint x="795" y="720.0049999999999" as="targetPoint" />
            <Array as="points">
              <mxPoint x="460" y="712" />
              <mxPoint x="460" y="266" />
            </Array>
          </mxGeometry>
        </mxCell>
        <mxCell id="SgOJjiS7krHxdYD3xKm1-18" value="No" style="edgeLabel;html=1;align=center;verticalAlign=middle;resizable=0;points=[];" vertex="1" connectable="0" parent="SgOJjiS7krHxdYD3xKm1-14">
          <mxGeometry x="0.0206" y="3" relative="1" as="geometry">
            <mxPoint as="offset" />
          </mxGeometry>
        </mxCell>
        <mxCell id="SgOJjiS7krHxdYD3xKm1-16" value="" style="edgeStyle=orthogonalEdgeStyle;rounded=0;orthogonalLoop=1;jettySize=auto;html=1;entryX=0;entryY=0.5;entryDx=0;entryDy=0;exitX=1;exitY=0.5;exitDx=0;exitDy=0;" edge="1" parent="1" source="SgOJjiS7krHxdYD3xKm1-11" target="0nqg7Sc1q2JI6adaUOui-17">
          <mxGeometry relative="1" as="geometry">
            <mxPoint x="1020" y="300" as="targetPoint" />
            <Array as="points">
              <mxPoint x="701" y="710" />
              <mxPoint x="940" y="710" />
              <mxPoint x="940" y="266" />
            </Array>
          </mxGeometry>
        </mxCell>
        <mxCell id="SgOJjiS7krHxdYD3xKm1-17" value="Yes" style="edgeLabel;html=1;align=center;verticalAlign=middle;resizable=0;points=[];" vertex="1" connectable="0" parent="SgOJjiS7krHxdYD3xKm1-16">
          <mxGeometry x="-0.3663" relative="1" as="geometry">
            <mxPoint as="offset" />
          </mxGeometry>
        </mxCell>
        <mxCell id="SgOJjiS7krHxdYD3xKm1-11" value="Recycable Detected?" style="rhombus;whiteSpace=wrap;html=1;fontSize=15;rounded=1;" vertex="1" parent="1">
          <mxGeometry x="563.45" y="656.8" width="137.5" height="109.99" as="geometry" />
        </mxCell>
      </root>
    </mxGraphModel>
  </diagram>
</mxfile>
